<svg xmlns="http://www.w3.org/2000/svg" width="256" height="256" viewBox="0 0 100 100"><rect width="100" height="100" rx="50" fill="#3f51b5"></rect><path d="M35.21 34.91L38.69 30.65L20.93 31.31L17.87 39.29L14.45 38.81L15.77 27.59L44.87 27.59L46.25 30.17L23.45 64.73L19.43 69.17L40.19 68.09L43.31 58.67L46.85 59.45L45.47 72.35L13.55 72.35L11.93 69.71L35.21 34.91ZM56.87 68.81L56.87 31.49L51.95 30.77L51.95 27.77L60.05 27.77Q62.09 27.77 65.21 27.53L65.21 27.53Q68.09 27.29 69.47 27.29L69.47 27.29Q77.75 27.29 81.32 29.87Q84.89 32.45 84.89 37.43L84.89 37.43Q84.89 41.69 82.43 44.75Q79.97 47.81 75.71 48.59L75.71 48.59Q81.47 48.47 84.77 51.29Q88.07 54.11 88.07 58.97L88.07 58.97Q88.07 65.03 83.78 68.87Q79.49 72.71 69.59 72.71L69.59 72.71Q67.43 72.71 65.45 72.53L65.45 72.53Q60.77 72.35 59.87 72.35L59.87 72.35L51.89 72.35L51.89 69.41L56.87 68.81ZM63.23 47.45Q64.07 47.51 66.65 47.51L66.65 47.51L69.95 47.51Q74.15 47.51 76.31 45.17Q78.47 42.83 78.47 38.51L78.47 38.51Q78.47 34.31 76.31 32.36Q74.15 30.41 68.93 30.41L68.93 30.41Q66.77 30.41 64.49 30.65L64.49 30.65L63.23 30.77L63.23 47.45ZM63.23 68.99Q64.61 69.47 69.47 69.47L69.47 69.47Q75.53 69.47 78.26 66.98Q80.99 64.49 80.99 59.81L80.99 59.81Q80.99 55.19 78.62 53.09Q76.25 50.99 70.97 50.99L70.97 50.99Q64.85 50.99 63.23 51.11L63.23 51.11L63.23 68.99Z" fill="#fff"></path></svg>